<?xml version="1.0" encoding="UTF-8"?>
<!DOCTYPE svg PUBLIC "-//W3C//DTD SVG 1.1//EN" "http://www.w3.org/Graphics/SVG/1.1/DTD/svg11.dtd">
<!-- Creator: CorelDRAW -->
<svg xmlns="http://www.w3.org/2000/svg" xml:space="preserve" width="123.639mm" height="36.4344mm" style="shape-rendering:geometricPrecision; text-rendering:geometricPrecision; image-rendering:optimizeQuality; fill-rule:evenodd; clip-rule:evenodd"
viewBox="0 0 78.4174 23.1084"
 xmlns:xlink="http://www.w3.org/1999/xlink">
 <defs>
  <style type="text/css">
   <![CDATA[
    .fil1 {fill:white}
    .fil2 {fill:#27AD7A}
    .fil0 {fill:white;fill-rule:nonzero}
   ]]>
  </style>
 </defs>
 <g id="Warstwa_x0020_1">
  <metadata id="CorelCorpID_0Corel-Layer"/>
  <path class="fil0" d="M34.7988 11.2227c0.59987,-0.420949 0.961834,-1.10625 0.961834,-1.84033 0,-1.2567 -1.09401,-2.1962 -2.56832,-2.1962l-3.53015 0 0 8.54076 3.62979 0c1.48445,0 2.68832,-1.09401 2.68832,-2.46462 0,-0.902849 -0.427038,-1.64511 -1.18147,-2.03961zm-0.829657 -1.55156c0,0.532767 -0.370146,0.910968 -0.951686,0.910968l-1.53938 0 0 -1.822 1.53938 0c0.579511,0 0.951686,0.374142 0.951686,0.911031zm-0.852046 4.35981l-1.63902 0 0 -1.91555 1.63902 0c0.607988,0 1.00858,0.404649 1.00858,0.953716 0,0.561244 -0.40059,0.961834 -1.00858,0.961834z"/>
  <path id="1" class="fil0" d="M40.1953 15.9161c2.03149,0 3.56269,-1.49669 3.56269,-3.48341 0,-1.99692 -1.5312,-3.48138 -3.56269,-3.48138 -2.03961,0 -3.56066,1.48242 -3.56066,3.48138 0,1.98671 1.52105,3.48341 3.56066,3.48341zm0 -1.67764c-1.02691,0 -1.7549,-0.738199 -1.7549,-1.80576 0,-1.06763 0.727988,-1.80576 1.7549,-1.80576 1.02691,0 1.75699,0.738136 1.75699,1.80576 0,1.06756 -0.730081,1.80576 -1.75699,1.80576z"/>
  <path id="12" class="fil0" d="M47.7393 15.9141c1.86468,0 3.09094,-1.19169 3.09094,-2.971l0 -3.80465 -1.78141 0 0 3.60334c0,0.923209 -0.48393,1.49466 -1.30953,1.49466 -0.823569,0 -1.3198,-0.559215 -1.3198,-1.49466l0 -3.60334 -1.78134 0 0 3.80465c0,1.77931 1.23843,2.971 3.10115,2.971z"/>
  <path id="123" class="fil0" d="M55.8994 8.98181c-0.896761,0 -1.68373,0.376171 -2.18193,0.969953l-0.347757 -0.813357 -1.22213 0 0 6.58855 1.78134 0 0 -3.46305c0,-1.06154 0.559215,-1.71836 1.47836,-1.71836 0.770736,0 1.14894,0.479934 1.14894,1.47633l0 3.70508 1.78134 0 0 -3.99385c0,-1.66743 -0.935386,-2.7513 -2.43817,-2.7513z"/>
  <path id="1234" class="fil0" d="M62.7276 15.9161c1.72445,0 3.07267,-1.12661 3.38377,-2.78187l-1.79352 0c-0.301013,0.703569 -0.870376,1.10422 -1.59025,1.10422 -0.953716,0 -1.69185,-0.795154 -1.69185,-1.81597 0,-1.02082 0.725958,-1.79555 1.69185,-1.79555 0.709721,0 1.3035,0.380231 1.59227,1.02691l1.7691 0c-0.321246,-1.62069 -1.64511,-2.70252 -3.35117,-2.70252 -2.00098,0 -3.50783,1.48648 -3.50783,3.46102 0,1.97454 1.51496,3.50377 3.49761,3.50377z"/>
  <path id="12345" class="fil0" d="M73.5008 12.4083c0,-1.89728 -1.38887,-3.45696 -3.41218,-3.45696 -1.95424,0 -3.4163,1.49663 -3.4163,3.48138 0,1.97454 1.47228,3.48341 3.4163,3.48341 1.52917,0 2.79201,-0.91712 3.26986,-2.35483l-1.87084 0c-0.272472,0.471752 -0.778791,0.764584 -1.39902,0.764584 -0.864287,0 -1.45395,-0.494141 -1.60851,-1.39496l4.98613 0c0.0223889,-0.172832 0.0345664,-0.347757 0.0345664,-0.522619zm-3.41218 -1.93591c0.79915,0 1.37872,0.437186 1.63084,1.24249l-3.1926 0c0.205369,-0.778854 0.768706,-1.24249 1.56177,-1.24249z"/>
  <path id="123456" class="fil0" d="M77.8318 9.10175c-0.845894,0 -1.4417,0.260295 -1.91149,0.843928l-0.315157 -0.807268 -1.14285 0 0 6.58855 1.78134 0 0 -3.42239c0,-1.07777 0.396531,-1.52308 1.40111,-1.52308l0.772702 0 0 -1.67974 -0.585663 0z"/>
  <g id="_127040400">
   <path id="_126864176" class="fil1" d="M11.7377 11.9911c1.83234,2.18897 2.19329,7.63639 1.08342,11.1105 -0.228773,0.00424945 -0.46059,0.00684986 -0.697417,0.00684986 -5.99965,0 -9.40777,-1.35494 -10.9999,-4.83524 1.47583,0.193001 3.01768,0.234608 4.54114,0.113276 1.01524,-0.080803 2.01145,-0.235305 2.96282,-0.457418 0.658094,-0.153551 1.29012,-0.339639 1.88745,-0.55598 0.0236574,0.149999 0.0423042,0.299872 0.0560039,0.448666 0.0319026,0.346869 0.0389427,0.695197 0.0202959,1.03566l1.1379 0.0596191c0.0216278,-0.394501 0.0135094,-0.797565 -0.0233403,-1.19834 -0.0376742,-0.40966 -0.103065,-0.810693 -0.195221,-1.192 -0.0920925,-0.381055 -0.213995,-0.75285 -0.361711,-1.10581 -0.148033,-0.353846 -0.31928,-0.678326 -0.509617,-0.9638l-0.943124 0.647121c0.151331,0.226997 0.287123,0.484183 0.404205,0.764013 0.050486,0.120634 0.097991,0.247356 0.142261,0.37966 -0.587248,0.218308 -1.21344,0.405156 -1.86874,0.558137 -0.878304,0.205052 -1.8187,0.349279 -2.79741,0.427228 -1.46746,0.116828 -2.95178,0.0745873 -4.36951,-0.115306 -0.183107,-0.0244819 -0.36577,-0.0516276 -0.54634,-0.0809932 -0.454184,-1.49974 -0.660821,-3.31565 -0.660821,-5.49118 0,-0.466869 0.00970397,-0.91693 0.0291119,-1.35107 2.28715,-0.829404 4.7531,-0.930946 7.08409,-0.304819 -0.361774,-0.344079 -0.506319,-0.882617 -0.32429,-1.38088 0.244946,-0.670335 0.988726,-1.01594 1.6597,-0.771243 0.624732,0.227948 0.967542,0.888071 0.813865,1.51902 -0.0655176,-0.252557 -0.249956,-0.469913 -0.513486,-0.566065 -0.42596,-0.155327 -0.898156,0.0640589 -1.05361,0.489575 -0.155454,0.425452 0.0640589,0.897014 0.489765,1.05247l-0.000634246 6.34246e-005c0.55154,0.205686 1.09243,0.453803 1.61815,0.744605l0.97046 -1.12693c0.424945,-0.465156 0.536572,-1.11342 0.33799,-1.63597 -0.103953,-0.273677 -0.293212,-0.512851 -0.566889,-0.672999 -0.69932,-0.409279 -1.83303,-0.587185 -2.47863,-0.648263 -2.54377,-0.240823 -5.0746,-0.252874 -7.61698,-0.0362155 0.202261,-0.878494 0.476129,-1.66039 0.828833,-2.35229 0.929171,-0.0565748 1.86012,-0.084101 2.79094,-0.0822617 1.43086,-0.00285411 2.86185,0.0636783 4.28668,0.198456 1.09775,0.10427 2.39193,0.370336 3.34907,0.930185 0.68784,0.402493 1.20995,1.02285 1.49321,1.76796 0.497312,1.30788 0.191289,2.79601 -0.735726,3.83148l-0.723929 0.840566zm-7.69854 -0.593147c1.55581,1.92158 4.89188,1.92633 2.95559,-0.46522l-0.118477 -0.146321c-1.85923,-0.631836 -3.83611,-0.624098 -5.66217,0.03241l-0.147843 0.196616c-1.83728,2.44407 1.49663,2.34652 2.9729,0.382514z"/>
   <path id="_127831616" class="fil2" d="M12.7626 0c8.4786,0.142705 11.4885,3.19527 11.4885,11.5457 0,6.13525 -1.62532,9.41589 -5.8494,10.7818 0.758051,-1.30896 1.14539,-2.8666 1.03192,-4.53423 -0.0872723,-1.28448 -0.563591,-2.54631 -1.11507,-3.69569l-1.19276 -2.52823 0.36336 -2.22297c0.141881,-0.867776 -0.439406,-1.7424 -1.30192,-1.98354l-0.143213 -1.74405c-0.224713,-2.28557 -1.48756,-4.31693 -3.2814,-5.61879z"/>
  </g>
 </g>
</svg>
