<?xml version="1.0" encoding="UTF-8"?>
<!DOCTYPE svg PUBLIC "-//W3C//DTD SVG 1.1//EN" "http://www.w3.org/Graphics/SVG/1.1/DTD/svg11.dtd">
<!-- Creator: CorelDRAW -->
<svg xmlns="http://www.w3.org/2000/svg" xml:space="preserve" width="123.639mm" height="36.4437mm" style="shape-rendering:geometricPrecision; text-rendering:geometricPrecision; image-rendering:optimizeQuality; fill-rule:evenodd; clip-rule:evenodd"
viewBox="0 0 78.4174 23.1143"
 xmlns:xlink="http://www.w3.org/1999/xlink">
 <defs>
  <style type="text/css">
    .fil1 {fill:white}
    .fil2 {fill:#27AD7A}
    .fil3 {fill:#2C2276}
    .fil0 {fill:#2C2276;fill-rule:nonzero}
  </style>
 </defs>
 <g id="Warstwa_x0020_1">
  <metadata id="CorelCorpID_0Corel-Layer"/>
  <g id="_85411008">
   <path id="_85419696" class="fil0" d="M34.7988 11.2287c0.59987,-0.420949 0.961834,-1.10625 0.961834,-1.84033 0,-1.2567 -1.09401,-2.1962 -2.56832,-2.1962l-3.53015 0 0 8.54076 3.62979 0c1.48445,0 2.68832,-1.09401 2.68832,-2.46462 0,-0.902849 -0.427038,-1.64511 -1.18147,-2.03961zm-0.829657 -1.55156c0,0.532767 -0.370146,0.910968 -0.951686,0.910968l-1.53938 0 0 -1.822 1.53938 0c0.579511,0 0.951686,0.374142 0.951686,0.911031zm-0.852046 4.35981l-1.63902 0 0 -1.91555 1.63902 0c0.607988,0 1.00858,0.404649 1.00858,0.953716 0,0.561244 -0.40059,0.961834 -1.00858,0.961834z"/>
   <path id="_854196961" class="fil0" d="M40.1953 15.9221c2.03149,0 3.56269,-1.49669 3.56269,-3.48341 0,-1.99692 -1.5312,-3.48138 -3.56269,-3.48138 -2.03961,0 -3.56066,1.48242 -3.56066,3.48138 0,1.98671 1.52105,3.48341 3.56066,3.48341zm0 -1.67764c-1.02691,0 -1.7549,-0.738199 -1.7549,-1.80576 0,-1.06763 0.727988,-1.80576 1.7549,-1.80576 1.02691,0 1.75699,0.738136 1.75699,1.80576 0,1.06756 -0.730081,1.80576 -1.75699,1.80576z"/>
   <path id="_8541969612" class="fil0" d="M47.7393 15.92c1.86468,0 3.09094,-1.19169 3.09094,-2.971l0 -3.80465 -1.78141 0 0 3.60334c0,0.923209 -0.48393,1.49466 -1.30953,1.49466 -0.823569,0 -1.3198,-0.559215 -1.3198,-1.49466l0 -3.60334 -1.78134 0 0 3.80465c0,1.77931 1.23843,2.971 3.10115,2.971z"/>
   <path id="_85419696123" class="fil0" d="M55.8994 8.98778c-0.896761,0 -1.68373,0.376171 -2.18193,0.969953l-0.347757 -0.813357 -1.22213 0 0 6.58855 1.78134 0 0 -3.46305c0,-1.06154 0.559215,-1.71836 1.47836,-1.71836 0.770736,0 1.14894,0.479934 1.14894,1.47633l0 3.70508 1.78134 0 0 -3.99385c0,-1.66743 -0.935386,-2.7513 -2.43817,-2.7513z"/>
   <path id="_854196961234" class="fil0" d="M62.7276 15.9221c1.72445,0 3.07267,-1.12661 3.38377,-2.78187l-1.79352 0c-0.301013,0.703569 -0.870376,1.10422 -1.59025,1.10422 -0.953716,0 -1.69185,-0.795154 -1.69185,-1.81597 0,-1.02082 0.725958,-1.79555 1.69185,-1.79555 0.709721,0 1.3035,0.380231 1.59227,1.02691l1.7691 0c-0.321246,-1.62069 -1.64511,-2.70252 -3.35117,-2.70252 -2.00098,0 -3.50783,1.48648 -3.50783,3.46102 0,1.97454 1.51496,3.50377 3.49761,3.50377z"/>
   <path id="_8541969612345" class="fil0" d="M73.5008 12.4142c0,-1.89728 -1.38887,-3.45696 -3.41218,-3.45696 -1.95424,0 -3.4163,1.49663 -3.4163,3.48138 0,1.97454 1.47228,3.48341 3.4163,3.48341 1.52917,0 2.79201,-0.91712 3.26986,-2.35483l-1.87084 0c-0.272472,0.471752 -0.778791,0.764584 -1.39902,0.764584 -0.864287,0 -1.45395,-0.494141 -1.60851,-1.39496l4.98613 0c0.0223889,-0.172832 0.0345664,-0.347757 0.0345664,-0.522619zm-3.41218 -1.93591c0.79915,0 1.37872,0.437186 1.63084,1.24249l-3.1926 0c0.205369,-0.778854 0.768706,-1.24249 1.56177,-1.24249z"/>
   <path id="_85419696123456" class="fil0" d="M77.8318 9.10771c-0.845894,0 -1.4417,0.260295 -1.91149,0.843928l-0.315157 -0.807268 -1.14285 0 0 6.58855 1.78134 0 0 -3.42239c0,-1.07777 0.396531,-1.52308 1.40111,-1.52308l0.772702 0 0 -1.67974 -0.585663 0z"/>
   <g>
    <path id="_85418976" class="fil1" d="M11.7377 11.997c1.83234,2.18897 2.19329,7.63639 1.08342,11.1105 -0.228773,0.00424945 -0.46059,0.00684986 -0.697417,0.00684986 -8.93589,0 -12.1237,-3.00499 -12.1237,-11.5627 0,-2.98984 0.389871,-5.29976 1.27744,-7.04102 0.929171,-0.0565748 1.86012,-0.084101 2.79094,-0.0822617 1.43086,-0.00285411 2.86185,0.0636783 4.28668,0.198456 1.09775,0.10427 2.39193,0.370336 3.34907,0.930185 0.68784,0.402493 1.20995,1.02285 1.49321,1.76796 0.497312,1.30788 0.191289,2.79601 -0.735726,3.83148l-0.723929 0.840566z"/>
    <path id="_85418256" class="fil2" d="M15.2886 22.9607c0.51856,-2.598 1.61777,-16.2896 -4.31084,-22.9426 0.371224,-0.0118604 0.752723,-0.0179492 1.14596,-0.0179492 8.96754,0 12.1274,2.9944 12.1274,11.5516 0,7.46159 -2.40284,10.7014 -8.96247,11.409z"/>
    <path id="_85416992" class="fil3" d="M16.1872 7.3688c0.862511,0.24114 1.4438,1.11577 1.30192,1.98354l-0.36336 2.22297 1.19276 2.52823c0.504923,1.05228 1.02684,2.39758 1.11507,3.69569l0 0c0.113467,1.668 -0.274058,3.22597 -1.03243,4.53511 -1.51185,0.48875 -3.35732,0.73192 -5.57997,0.773146 1.10987,-3.47408 0.748854,-8.9215 -1.08348,-11.1105l0.723929 -0.840566c0.927014,-1.03547 1.23304,-2.5236 0.735726,-3.83148 -0.283254,-0.745112 -0.805366,-1.36547 -1.49321,-1.76796 -0.957141,-0.559849 -2.25132,-0.825915 -3.34907,-0.930185 -1.42483,-0.134777 -2.85582,-0.20131 -4.28668,-0.198456 -0.93082,-0.00183931 -1.86177,0.025687 -2.79094,0.0822617 1.65259,-3.24227 5.03249,-4.51057 10.8462,-4.51057 0.216658,0 0.428877,0.00234671 0.638749,0.00583506 1.7939,1.30185 3.05681,3.33322 3.28153,5.61885l0.143213 1.74405z"/>
    <path id="_85415864" class="fil3" d="M4.03913 11.4039c1.55581,1.92158 4.89188,1.92633 2.95559,-0.46522l-0.118477 -0.146321c-1.85923,-0.631836 -3.83611,-0.624098 -5.66217,0.03241l-0.147843 0.196616c-1.83728,2.44407 1.49663,2.34652 2.9729,0.382514z"/>
    <path id="_85415144" class="fil0" d="M10.5152 17.379c-0.597333,0.216341 -1.22936,0.402429 -1.88745,0.55598 -0.951369,0.222113 -1.94758,0.376615 -2.96282,0.457418 -1.52365,0.121331 -3.06563,0.0797247 -4.54165,-0.11334 -0.17632,-0.385431 -0.330569,-0.797691 -0.46338,-1.23634 0.180887,0.029429 0.363867,0.0565748 0.547291,0.0811201 1.41773,0.189893 2.90206,0.232134 4.36951,0.115306 0.978705,-0.0779489 1.9191,-0.222176 2.79741,-0.427228 0.655303,-0.15298 1.28149,-0.339829 1.86874,-0.558137 -0.0442704,-0.132304 -0.0917754,-0.259026 -0.142261,-0.37966 -0.117082,-0.279829 -0.252874,-0.537016 -0.404205,-0.764013l0.943124 -0.647121c0.190337,0.285474 0.361584,0.609955 0.509617,0.9638 0.147716,0.352958 0.269618,0.724753 0.361711,1.10581 0.092156,0.381309 0.157547,0.782343 0.195221,1.192 0.0368497,0.40078 0.0449681,0.803844 0.0233403,1.19834l-1.1379 -0.0596191c0.0186468,-0.340463 0.0116067,-0.688791 -0.0202959,-1.03566 -0.0136997,-0.148794 -0.0323466,-0.298667 -0.0560039,-0.448666z"/>
    <path id="_85413272" class="fil3" d="M0.0289216 10.2006c2.28722,-0.829467 4.75323,-0.93101 7.08428,-0.304882 -0.361774,-0.344079 -0.506319,-0.882617 -0.32429,-1.38088 0.244946,-0.670335 0.988726,-1.01594 1.6597,-0.771243 0.624732,0.227948 0.967542,0.888071 0.813865,1.51902 -0.0655176,-0.252557 -0.249956,-0.469913 -0.513486,-0.566065 -0.42596,-0.155327 -0.898156,0.0640589 -1.05361,0.489575 -0.155454,0.425452 0.0640589,0.897014 0.489765,1.05247l-0.000634246 6.34246e-005c0.55154,0.205686 1.09243,0.453803 1.61815,0.744605l0.97046 -1.12693c0.424945,-0.465156 0.536572,-1.11342 0.33799,-1.63597 -0.103953,-0.273677 -0.293212,-0.512851 -0.566889,-0.672999 -0.69932,-0.409279 -1.83303,-0.587185 -2.47863,-0.648263 -2.54383,-0.240823 -5.07479,-0.252874 -7.61723,-0.0362155 -0.227124,0.987141 -0.36393,2.09644 -0.419427,3.33772z"/>
   </g>
  </g>
 </g>
</svg>
